<svg width="331" height="243" viewBox="0 0 331 243" fill="none" xmlns="http://www.w3.org/2000/svg">
<path d="M17.8925 35.7851C13.0743 28.79 7.00835 22.7108 0 17.8925C7.00835 13.0743 13.0743 7.00835 17.8925 0C22.7108 7.00835 28.7767 13.0743 35.7851 17.8925C28.79 22.7108 22.7108 28.7767 17.8925 35.7851Z" fill="#002929"/>
<path d="M25.8429 45.9524H9.94141V242.717H25.8429V45.9524Z" fill="#002929"/>
<path d="M34.3125 45.9524H74.2256C96.7372 45.9524 119.143 48.9655 140.845 54.9119L264.38 88.7591C286.082 94.7055 308.488 97.7186 330.999 97.7186V107.342H297.736C285.525 107.342 273.34 106.453 261.261 104.687L110.966 82.7064C98.8875 80.941 86.6893 80.0517 74.491 80.0517H34.3258V45.9391L34.3125 45.9524Z" fill="#002929"/>
<path d="M34.3125 168.492H74.2256C96.7372 168.492 119.143 165.479 140.845 159.533L264.38 125.686C286.082 119.739 308.488 116.726 330.999 116.726V107.103H297.736C285.525 107.103 273.34 107.992 261.261 109.758L110.966 131.738C98.8875 133.504 86.6893 134.393 74.491 134.393H34.3258V168.506L34.3125 168.492Z" fill="#002929"/>
</svg>
