<svg width="16" height="20" viewBox="0 0 16 20" fill="none" xmlns="http://www.w3.org/2000/svg">
<path d="M3.03027 0H0.704717C0.315512 0 0 0.315512 0 0.704717V19.1824C0 19.5716 0.315512 19.8871 0.704717 19.8871H3.03027C3.41948 19.8871 3.73499 19.5716 3.73499 19.1824V0.704717C3.73499 0.315512 3.41948 0 3.03027 0Z" fill="#002929"/>
<path d="M15.0435 7.968L3.73047 1.43762V16.434L15.0435 9.90362C15.7858 9.47609 15.7858 8.40022 15.0435 7.968ZM6.87351 11.7547C6.15469 10.7117 5.25265 9.80496 4.20497 9.08615C5.24795 8.36734 6.15469 7.4653 6.87351 6.41762C7.59232 7.4606 8.49435 8.36734 9.54203 9.08615C8.49905 9.80496 7.59232 10.707 6.87351 11.7547Z" fill="#002929"/>
</svg>
