<svg width="17" height="21" viewBox="0 0 17 21" fill="none" xmlns="http://www.w3.org/2000/svg">
<path d="M7.15079 0.571631L0.518926 7.45713C0.186813 7.80452 0 8.26597 0 8.74817V19.1335C0 20.1652 0.835465 21 1.86813 21H15.1319C16.1645 21 17 20.1652 17 19.1335V8.74817C17 8.26597 16.8132 7.80452 16.4811 7.45713L9.84921 0.571631C9.11752 -0.190544 7.89286 -0.190544 7.16117 0.571631H7.15079ZM8.4948 16.624C7.47252 15.1411 6.18559 13.8553 4.70665 12.839C6.19078 11.8176 7.47771 10.5318 8.4948 9.05407C9.51709 10.5369 10.804 11.8228 12.283 12.839C10.7988 13.8604 9.5119 15.1463 8.4948 16.624Z" fill="#002929"/>
</svg>
