<svg width="31" height="34" viewBox="0 0 31 34" fill="none" xmlns="http://www.w3.org/2000/svg">
<path d="M30.2597 32.7575L29.468 27.8251C29.4301 27.5827 29.3695 27.1887 29.3429 26.9463C29.2217 25.931 28.5247 21.9116 25.0508 19.775C24.2666 19.2939 23.346 18.9037 22.2512 18.6726L9.53387 16.2253C8.95047 16.1117 8.37465 15.9677 7.82155 15.7556C6.1206 15.1116 4.81363 14.0811 4.81363 12.3309C4.81363 9.64883 6.79113 8.92526 8.20417 8.81919L13.4851 8.77373C16.6256 8.77373 19.1789 11.327 19.1789 14.4676H22.2588C22.2588 11.3233 24.8083 8.77373 27.9526 8.77373V5.69383C24.8083 5.69383 22.2588 3.1443 22.2588 0H19.1789C19.1789 3.14051 16.6256 5.69383 13.4851 5.69383H8.24205C6.93509 5.69383 5.6357 5.97038 4.47647 6.57651C2.83614 7.43266 1.08594 9.09194 1.08594 12.2893C1.08594 16.4526 4.0143 18.2634 7.52228 19.0969C10.9204 19.9038 13.5874 20.6917 13.5874 20.6917C13.5874 20.6917 15.2959 21.0441 16.9173 22.1806C18.372 23.2034 19.7585 24.8665 19.7585 27.488V32.9242C19.7585 33.5152 20.2396 33.9963 20.8306 33.9963H29.2028C29.8619 33.9963 30.3658 33.4053 30.2597 32.7537V32.7575ZM20.7207 4.9589C21.3345 5.84915 22.1073 6.62197 22.9975 7.23567C22.1073 7.84938 21.3345 8.62219 20.7207 9.51245C20.107 8.62219 19.3342 7.84938 18.444 7.23567C19.3342 6.62197 20.107 5.84915 20.7207 4.9589Z" fill="#002929"/>
<path d="M11.936 22.8624L3.40469 21.1009C3.25694 21.0668 3.09783 21.1198 3.00692 21.241C1.27566 23.5595 0.862732 27.1811 0.862732 27.1811L0.01415 32.7575C-0.0919227 33.4091 0.411923 34 1.07109 34H10.2502C10.8411 34 11.3223 33.5189 11.3223 32.928L11.2844 28.7002C11.2692 26.9538 11.5382 25.2187 12.1178 23.5708C12.1254 23.5481 12.133 23.5254 12.1443 23.5026C12.2428 23.2261 12.2239 22.9344 11.9398 22.8662L11.936 22.8624Z" fill="#002929"/>
</svg>
