<svg width="13" height="17" viewBox="0 0 13 17" fill="none" xmlns="http://www.w3.org/2000/svg">
<path d="M11.0867 0H1.91329C0.855146 0 0 0.842132 0 1.88416V15.1158C0 16.1579 0.855146 17 1.91329 17H11.0867C12.1448 17 13 16.1579 13 15.1158V1.88416C13 0.842132 12.1448 0 11.0867 0ZM8.58172 12.6873H4.42259C4.06411 12.6873 3.77475 12.4023 3.77475 12.0493C3.77475 11.6963 4.06411 11.4113 4.42259 11.4113H8.58172C8.9402 11.4113 9.22956 11.6963 9.22956 12.0493C9.22956 12.4023 8.9402 12.6873 8.58172 12.6873ZM8.58172 9.13585H4.42259C4.06411 9.13585 3.77475 8.85089 3.77475 8.49787C3.77475 8.14486 4.06411 7.85989 4.42259 7.85989H8.58172C8.9402 7.85989 9.22956 8.14486 9.22956 8.49787C9.22956 8.85089 8.9402 9.13585 8.58172 9.13585ZM8.58172 5.58444H4.42259C4.06411 5.58444 3.77475 5.29948 3.77475 4.94646C3.77475 4.59345 4.06411 4.30848 4.42259 4.30848H8.58172C8.9402 4.30848 9.22956 4.59345 9.22956 4.94646C9.22956 5.29948 8.9402 5.58444 8.58172 5.58444Z" fill="#002929"/>
</svg>
