<svg width="19" height="10" viewBox="0 0 19 10" fill="none" xmlns="http://www.w3.org/2000/svg">
<path d="M16.8229 0H2.17708C0.976675 0 0 1.09021 0 2.44091V7.55909C0 8.90497 0.972372 10 2.17708 10H16.8229C18.0233 10 19 8.90979 19 7.55909V2.44091C19 1.09503 18.0276 0 16.8229 0ZM6.55275 4.99759C6.55275 3.50699 7.43047 2.24795 8.63949 1.83309V8.15726C7.43047 7.7424 6.55275 6.48336 6.55275 4.99277V4.99759ZM10.3605 8.16208V1.83792C11.5695 2.25277 12.4472 3.51182 12.4472 5.00241C12.4472 6.49301 11.5695 7.75205 10.3605 8.16691V8.16208Z" fill="#002929"/>
</svg>
